<?xml version="1.0" encoding="UTF-8" standalone="no"?>
<svg
   viewBox="0 0 24 24"
   version="1.1"
   id="svg1437"
   sodipodi:docname="card-account-details-icon.svg"
   inkscape:version="1.1.2 (0a00cf5339, 2022-02-04)"
   xmlns:inkscape="http://www.inkscape.org/namespaces/inkscape"
   xmlns:sodipodi="http://sodipodi.sourceforge.net/DTD/sodipodi-0.dtd"
   xmlns="http://www.w3.org/2000/svg"
   xmlns:svg="http://www.w3.org/2000/svg">
  <defs
     id="defs1441" />
  <sodipodi:namedview
     id="namedview1439"
     pagecolor="#ffffff"
     bordercolor="#666666"
     borderopacity="1.0"
     inkscape:pageshadow="2"
     inkscape:pageopacity="0.0"
     inkscape:pagecheckerboard="0"
     showgrid="false"
     inkscape:zoom="32.583333"
     inkscape:cx="5.831202"
     inkscape:cy="11.984655"
     inkscape:window-width="1858"
     inkscape:window-height="1016"
     inkscape:window-x="0"
     inkscape:window-y="0"
     inkscape:window-maximized="1"
     inkscape:current-layer="svg1437" />
  <path
     d="M2,3H22C23.05,3 24,3.95 24,5V19C24,20.05 23.05,21 22,21H2C0.95,21 0,20.05 0,19V5C0,3.95 0.95,3 2,3M14,6V7H22V6H14M14,8V9H21.5L22,9V8H14M14,10V11H21V10H14M8,13.91C6,13.91 2,15 2,17V18H14V17C14,15 10,13.91 8,13.91M8,6A3,3 0 0,0 5,9A3,3 0 0,0 8,12A3,3 0 0,0 11,9A3,3 0 0,0 8,6Z"
     id="path1435"
     style="fill:#ffffff;fill-opacity:1" />
</svg>
